<svg xmlns="http://www.w3.org/2000/svg" viewBox="0 0 24 24">
  <!-- 4x4 grid of 0/1 cells -->
  <!-- Row 1: 0 1 0 1 -->
  <rect x="1.5" y="1.5" width="4.5" height="4.5" rx="0.8" opacity="0.4"/>
  <text x="3.75" y="5.5" font-size="4.5" font-family="monospace" text-anchor="middle" font-weight="bold">0</text>
  <rect x="7" y="1.5" width="4.5" height="4.5" rx="0.8"/>
  <text x="9.25" y="5.5" font-size="4.5" font-family="monospace" text-anchor="middle" font-weight="bold">1</text>
  <rect x="12.5" y="1.5" width="4.5" height="4.5" rx="0.8" opacity="0.4"/>
  <text x="14.75" y="5.5" font-size="4.5" font-family="monospace" text-anchor="middle" font-weight="bold">0</text>
  <rect x="18" y="1.5" width="4.5" height="4.5" rx="0.8"/>
  <text x="20.25" y="5.5" font-size="4.5" font-family="monospace" text-anchor="middle" font-weight="bold">1</text>
  <!-- Row 2: 1 0 1 0 -->
  <rect x="1.5" y="7" width="4.5" height="4.5" rx="0.8"/>
  <text x="3.75" y="11" font-size="4.5" font-family="monospace" text-anchor="middle" font-weight="bold">1</text>
  <rect x="7" y="7" width="4.5" height="4.5" rx="0.8" opacity="0.4"/>
  <text x="9.25" y="11" font-size="4.5" font-family="monospace" text-anchor="middle" font-weight="bold">0</text>
  <rect x="12.5" y="7" width="4.5" height="4.5" rx="0.8"/>
  <text x="14.75" y="11" font-size="4.5" font-family="monospace" text-anchor="middle" font-weight="bold">1</text>
  <rect x="18" y="7" width="4.5" height="4.5" rx="0.8" opacity="0.4"/>
  <text x="20.25" y="11" font-size="4.5" font-family="monospace" text-anchor="middle" font-weight="bold">0</text>
  <!-- Row 3: partial (question marks for puzzle) -->
  <rect x="1.5" y="12.5" width="4.5" height="4.5" rx="0.8" opacity="0.15"/>
  <rect x="7" y="12.5" width="4.5" height="4.5" rx="0.8"/>
  <text x="9.25" y="16.5" font-size="4.5" font-family="monospace" text-anchor="middle" font-weight="bold">1</text>
  <rect x="12.5" y="12.5" width="4.5" height="4.5" rx="0.8" opacity="0.15"/>
  <rect x="18" y="12.5" width="4.5" height="4.5" rx="0.8" opacity="0.4"/>
  <text x="20.25" y="16.5" font-size="4.5" font-family="monospace" text-anchor="middle" font-weight="bold">0</text>
</svg>
