<svg xmlns="http://www.w3.org/2000/svg" viewBox="0 0 24 24" fill="currentColor" aria-hidden="true">
  <path d="M12 2a10 10 0 1 0 0 20 10 10 0 0 0 0-20Zm6.93 6h-2.95a15.7 15.7 0 0 0-1.38-3.56A8.03 8.03 0 0 1 18.93 8ZM12 4.04c.83 1.2 1.48 2.54 1.91 3.96h-3.82c.43-1.42 1.08-2.76 1.91-3.96ZM4.26 14a7.96 7.96 0 0 1 0-4h3.38a17.9 17.9 0 0 0 0 4H4.26Zm.81 2h2.95c.36 1.27.82 2.46 1.38 3.56A8.03 8.03 0 0 1 5.07 16Zm2.95-8H5.07a8.03 8.03 0 0 1 4.33-3.56A15.7 15.7 0 0 0 8.02 8ZM12 19.96c-.83-1.2-1.48-2.54-1.91-3.96h3.82A15.7 15.7 0 0 1 12 19.96ZM14.34 14H9.66a15.9 15.9 0 0 1 0-4h4.68a15.9 15.9 0 0 1 0 4Zm.24 5.56c.56-1.1 1.02-2.29 1.38-3.56h2.95a8.03 8.03 0 0 1-4.33 3.56ZM16.36 14a17.9 17.9 0 0 0 0-4h3.38a7.96 7.96 0 0 1 0 4h-3.38Z" />
</svg>
