<svg xmlns="http://www.w3.org/2000/svg" viewBox="0 0 24 24">
  <!-- 3x3 kakuro grid -->
  <!-- Row 0: black clue cells -->
  <rect x="1" y="1" width="6.5" height="6.5" rx="0.8" opacity="0.6"/>
  <rect x="8.75" y="1" width="6.5" height="6.5" rx="0.8" opacity="0.6"/>
  <line x1="9" y1="1.2" x2="15" y2="7.3" stroke="white" stroke-width="0.5" opacity="0.6"/>
  <text x="13.5" y="5" font-size="3" font-family="sans-serif" fill="white">7</text>
  <text x="9.5" y="7" font-size="3" font-family="sans-serif" fill="white">6</text>
  <rect x="16.5" y="1" width="6.5" height="6.5" rx="0.8" opacity="0.6"/>
  <line x1="16.7" y1="1.2" x2="22.7" y2="7.3" stroke="white" stroke-width="0.5" opacity="0.6"/>
  <text x="21" y="5" font-size="3" font-family="sans-serif" fill="white">4</text>
  <!-- Row 1 -->
  <rect x="1" y="8.75" width="6.5" height="6.5" rx="0.8" opacity="0.6"/>
  <text x="3" y="13.8" font-size="3.5" font-family="sans-serif" fill="white">8→</text>
  <rect x="8.75" y="8.75" width="6.5" height="6.5" rx="0.8" opacity="0.2"/>
  <text x="10.5" y="13.5" font-size="4" font-family="sans-serif" font-weight="bold">3</text>
  <rect x="16.5" y="8.75" width="6.5" height="6.5" rx="0.8" opacity="0.2"/>
  <text x="18.2" y="13.5" font-size="4" font-family="sans-serif" font-weight="bold">4</text>
  <!-- Row 2 -->
  <rect x="1" y="16.5" width="6.5" height="6.5" rx="0.8" opacity="0.6"/>
  <text x="3" y="21.5" font-size="3.5" font-family="sans-serif" fill="white">5→</text>
  <rect x="8.75" y="16.5" width="6.5" height="6.5" rx="0.8" opacity="0.2"/>
  <text x="10.5" y="21.2" font-size="4" font-family="sans-serif" font-weight="bold">2</text>
  <rect x="16.5" y="16.5" width="6.5" height="6.5" rx="0.8" opacity="0.2"/>
  <text x="18.2" y="21.2" font-size="4" font-family="sans-serif" font-weight="bold">3</text>
</svg>
